<svg version="1.1" id="Layer_1" xmlns="http://www.w3.org/2000/svg" xmlns:xlink="http://www.w3.org/1999/xlink" x="0px" y="0px"
	 width="100%" viewBox="0 0 230 190" enable-background="new 0 0 230 190" xml:space="preserve">
<path fill="#FAFCF9" opacity="1.000000" stroke="none" 
	d="
M136.000000,191.000000 
	C90.666672,191.000000 45.833340,191.000000 1.000006,191.000000 
	C1.000004,127.666672 1.000004,64.333344 1.000002,1.000015 
	C77.666656,1.000010 154.333313,1.000010 230.999969,1.000005 
	C230.999985,64.333321 230.999985,127.666634 231.000000,190.999969 
	C199.500000,191.000000 168.000000,191.000000 136.000000,191.000000 
M199.868088,114.200424 
	C196.588150,114.223167 193.308228,114.245911 189.134827,114.267067 
	C184.439056,114.488602 179.743286,114.710136 174.737335,114.507431 
	C174.256973,114.650429 173.776611,114.793419 173.296249,114.936409 
	C173.457764,115.306046 173.619278,115.675682 173.762985,116.958992 
	C173.836990,120.624619 173.910980,124.290237 173.051498,127.957794 
	C167.375549,128.411819 161.699600,128.865845 155.199219,129.286057 
	C152.418427,129.476440 149.637650,129.666840 146.522751,129.691742 
	C146.522751,129.691742 146.151428,129.725464 145.405792,129.349243 
	C138.795380,129.314636 132.184540,129.218658 125.574722,129.266861 
	C121.111084,129.299393 117.834877,130.524536 118.871681,136.171066 
	C119.343719,138.741837 119.180855,141.429153 118.337112,144.103226 
	C106.742104,144.446335 95.148224,144.836548 83.551643,145.114029 
	C77.086281,145.268738 77.112221,145.184341 77.086563,151.905960 
	C77.074509,155.061707 78.118561,158.649948 73.118523,160.291962 
	C66.079109,160.496063 59.039700,160.700180 51.366444,160.387497 
	C46.586021,160.687286 41.805603,160.987076 36.127857,161.267410 
	C32.086327,161.461960 28.044796,161.656525 23.450384,161.364899 
	C22.339386,161.921982 20.310423,162.417236 20.268055,163.046295 
	C20.014503,166.810898 20.128132,170.611481 20.344242,174.387070 
	C20.388020,175.151917 21.419785,176.514359 21.959654,176.496567 
	C28.072655,176.295044 34.178558,175.878265 41.159748,175.433533 
	C44.443321,175.364456 47.726891,175.295395 51.662846,175.720505 
	C58.055378,175.742035 64.449089,175.831894 70.839340,175.721649 
	C71.979408,175.701965 73.105164,174.852829 74.836205,174.348709 
	C75.235985,174.354752 75.635765,174.360794 76.595818,174.788666 
	C81.038849,174.001328 78.668564,170.529678 78.744583,168.449509 
	C79.050674,160.073242 78.869583,160.067093 87.429115,159.994446 
	C96.208084,159.919968 104.990768,159.662582 113.764526,159.842178 
	C118.520454,159.939529 120.430367,158.274033 119.913612,153.435333 
	C119.582001,150.330154 119.941154,147.151199 120.789375,144.107803 
	C121.860802,144.089035 122.932236,144.070267 124.852600,144.124054 
	C125.992798,144.268707 127.140312,144.580048 128.271988,144.530380 
	C134.602371,144.252533 140.928925,143.887451 148.149155,143.661621 
	C155.436066,143.488342 162.722992,143.315048 170.582672,143.617493 
	C173.964340,144.590347 174.833893,143.111618 175.029099,139.855927 
	C175.255295,136.083344 176.286453,132.359039 177.885895,128.686096 
	C183.927185,128.529205 189.968460,128.372299 196.585388,128.671188 
	C198.286484,128.109802 201.469620,127.502632 201.453918,126.994240 
	C201.329742,122.973061 200.596069,118.970695 200.002441,114.994446 
	C200.002441,114.994446 200.038513,114.949768 199.868088,114.200424 
M73.340172,44.535763 
	C73.587456,47.488758 74.137604,50.455086 74.008369,53.391510 
	C73.831154,57.418629 75.171005,59.019852 79.407661,58.865742 
	C91.673988,58.419559 103.952827,58.321205 116.226372,58.067657 
	C120.866325,57.971806 125.505226,57.824852 131.045837,57.849590 
	C133.877594,57.900246 136.722778,58.145645 139.537689,57.951691 
	C142.966797,57.715416 144.302429,58.955677 144.196350,62.471600 
	C144.103729,65.541924 144.681015,68.632454 144.996292,72.085922 
	C147.431183,72.085922 149.238983,72.098267 151.046585,72.084007 
	C168.875076,71.943359 186.705078,71.896988 204.531281,71.611946 
	C213.152161,71.474091 212.478043,73.217766 212.685867,63.142036 
	C212.785507,58.310947 211.192047,56.888401 206.408234,57.011711 
	C192.252655,57.376587 178.083084,57.165310 163.923340,57.421093 
	C159.820023,57.495216 157.150803,57.071556 157.660599,51.924313 
	C157.912094,49.385258 157.072098,46.738098 156.712708,44.040127 
	C147.573898,44.040127 138.788361,44.040127 129.485382,43.546970 
	C112.175285,43.693687 94.865295,43.861397 77.554893,43.944130 
	C76.278503,43.950230 74.999199,43.343990 73.882614,42.117222 
	C73.879936,39.953259 73.736923,37.778412 73.903702,35.627586 
	C74.254913,31.098083 72.378105,29.537678 67.789139,29.675291 
	C56.807365,30.004612 45.811325,29.865711 34.820992,29.899565 
	C28.874275,29.917881 22.927456,29.902828 16.291901,29.902828 
	C16.526665,34.403069 16.502987,38.200417 17.059259,41.910820 
	C17.217333,42.965202 19.070950,44.572697 20.135248,44.563522 
	C37.765354,44.411499 55.393585,44.041897 73.340172,44.535763 
z"/>
<path fill="#858784" opacity="1.000000" stroke="none" 
	d="
M130.002808,44.040127 
	C138.788361,44.040127 147.573898,44.040127 156.712708,44.040127 
	C157.072098,46.738098 157.912094,49.385258 157.660599,51.924313 
	C157.150803,57.071556 159.820023,57.495216 163.923340,57.421093 
	C178.083084,57.165310 192.252655,57.376587 206.408234,57.011711 
	C211.192047,56.888401 212.785507,58.310947 212.685867,63.142036 
	C212.478043,73.217766 213.152161,71.474091 204.531281,71.611946 
	C186.705078,71.896988 168.875076,71.943359 151.046585,72.084007 
	C149.238983,72.098267 147.431183,72.085922 144.996292,72.085922 
	C144.681015,68.632454 144.103729,65.541924 144.196350,62.471600 
	C144.302429,58.955677 142.966797,57.715416 139.537689,57.951691 
	C136.722778,58.145645 133.877594,57.900246 130.577576,57.337845 
	C130.073807,52.564110 130.038315,48.302120 130.002808,44.040127 
z"/>
<path fill="#868885" opacity="1.000000" stroke="none" 
	d="
M73.022232,43.720970 
	C55.393585,44.041897 37.765354,44.411499 20.135248,44.563522 
	C19.070950,44.572697 17.217333,42.965202 17.059259,41.910820 
	C16.502987,38.200417 16.526665,34.403069 16.291901,29.902828 
	C22.927456,29.902828 28.874275,29.917881 34.820992,29.899565 
	C45.811325,29.865711 56.807365,30.004612 67.789139,29.675291 
	C72.378105,29.537678 74.254913,31.098083 73.903702,35.627586 
	C73.736923,37.778412 73.879936,39.953259 73.632370,42.622681 
	C73.165726,43.267178 73.045761,43.464790 73.022232,43.720970 
z"/>
<path fill="#AEAEAE" opacity="1.000000" stroke="none" 
	d="
M73.181198,44.128365 
	C73.045761,43.464790 73.165726,43.267178 73.551682,43.075279 
	C74.999199,43.343990 76.278503,43.950230 77.554893,43.944130 
	C94.865295,43.861397 112.175285,43.693687 129.744095,43.793549 
	C130.038315,48.302120 130.073807,52.564110 130.126953,57.263649 
	C125.505226,57.824852 120.866325,57.971806 116.226372,58.067657 
	C103.952827,58.321205 91.673988,58.419559 79.407661,58.865742 
	C75.171005,59.019852 73.831154,57.418629 74.008369,53.391510 
	C74.137604,50.455086 73.587456,47.488758 73.181198,44.128365 
z"/>
<path fill="#F85156" opacity="1.000000" stroke="none" 
	d="
M24.003263,161.851074 
	C28.044796,161.656525 32.086327,161.461960 36.901154,161.519318 
	C42.449726,161.482239 47.225010,161.193268 52.000290,160.904282 
	C59.039700,160.700180 66.079109,160.496063 73.830414,160.561157 
	C79.356079,164.866409 76.869576,169.707764 76.035545,174.366837 
	C75.635765,174.360794 75.235985,174.354752 74.069839,174.210449 
	C71.172920,174.063095 69.035263,173.937912 66.913200,174.067749 
	C61.608517,174.392273 56.310909,174.832520 51.010464,175.226334 
	C47.726891,175.295395 44.443321,175.364456 40.260666,175.290237 
	C35.716381,175.124496 32.049580,175.332413 28.434059,174.993393 
	C26.256659,174.789215 22.308748,173.675308 22.327864,173.070419 
	C22.446207,169.325439 19.728601,164.949829 24.003263,161.851074 
z"/>
<path fill="#F69FAE" opacity="1.000000" stroke="none" 
	d="
M76.315681,174.577759 
	C76.869576,169.707764 79.356079,164.866409 74.282486,160.586441 
	C78.118561,158.649948 77.074509,155.061707 77.086563,151.905960 
	C77.112221,145.184341 77.086281,145.268738 83.551643,145.114029 
	C95.148224,144.836548 106.742104,144.446335 118.990387,144.059418 
	C119.643669,144.015594 119.990669,144.005325 119.990669,144.005325 
	C119.941154,147.151199 119.582001,150.330154 119.913612,153.435333 
	C120.430367,158.274033 118.520454,159.939529 113.764526,159.842178 
	C104.990768,159.662582 96.208084,159.919968 87.429115,159.994446 
	C78.869583,160.067093 79.050674,160.073242 78.744583,168.449509 
	C78.668564,170.529678 81.038849,174.001328 76.315681,174.577759 
z"/>
<path fill="#F75057" opacity="1.000000" stroke="none" 
	d="
M170.009903,143.141754 
	C162.722992,143.315048 155.436066,143.488342 147.630096,143.184967 
	C147.026306,138.424622 146.941574,134.140930 146.856857,129.857239 
	C149.637650,129.666840 152.418427,129.476440 155.947052,129.530579 
	C160.819077,129.816498 164.946060,129.785828 169.065811,129.943436 
	C170.292084,129.990356 171.944672,130.180161 172.628357,130.972229 
	C174.555939,133.205383 172.629440,141.348953 170.009903,143.141754 
z"/>
<path fill="#F35256" opacity="1.000000" stroke="none" 
	d="
M196.009750,128.215393 
	C189.968460,128.372299 183.927185,128.529205 177.193237,128.438873 
	C175.662033,128.113037 174.823517,128.034454 173.984985,127.955856 
	C173.910980,124.290237 173.836990,120.624619 174.052979,116.407562 
	C174.577805,115.547974 174.812653,115.239815 175.047516,114.931664 
	C179.743286,114.710136 184.439056,114.488602 189.903534,114.498573 
	C193.794327,114.803307 196.916412,114.876534 200.038513,114.949768 
	C200.038513,114.949768 200.002441,114.994446 199.979050,115.441223 
	C199.992661,117.693764 199.857010,119.523468 200.103394,121.300209 
	C200.584656,124.770851 199.755661,127.317314 196.009750,128.215393 
z"/>
<path fill="#F69FAE" opacity="1.000000" stroke="none" 
	d="
M146.689804,129.774490 
	C146.941574,134.140930 147.026306,138.424622 147.183899,143.130249 
	C140.928925,143.887451 134.602371,144.252533 128.271988,144.530380 
	C127.140312,144.580048 125.992798,144.268707 124.381271,143.699829 
	C123.518921,142.554718 123.080185,141.855301 122.744438,141.109512 
	C120.085159,135.202454 122.100060,132.015656 128.492813,132.002075 
	C132.307724,131.993958 136.146942,132.256836 139.928116,131.899475 
	C142.052078,131.698761 144.080154,130.483582 146.151428,129.725464 
	C146.151428,129.725464 146.522751,129.691742 146.689804,129.774490 
z"/>
<path fill="#F49FAC" opacity="1.000000" stroke="none" 
	d="
M145.778610,129.537354 
	C144.080154,130.483582 142.052078,131.698761 139.928116,131.899475 
	C136.146942,132.256836 132.307724,131.993958 128.492813,132.002075 
	C122.100060,132.015656 120.085159,135.202454 122.744438,141.109512 
	C123.080185,141.855301 123.518921,142.554718 123.956802,143.663559 
	C122.932236,144.070267 121.860802,144.089035 120.390022,144.056564 
	C119.990669,144.005325 119.643669,144.015594 119.474823,144.039612 
	C119.180855,141.429153 119.343719,138.741837 118.871681,136.171066 
	C117.834877,130.524536 121.111084,129.299393 125.574722,129.266861 
	C132.184540,129.218658 138.795380,129.314636 145.778610,129.537354 
z"/>
<path fill="#F49FAC" opacity="1.000000" stroke="none" 
	d="
M173.518250,127.956825 
	C174.823517,128.034454 175.662033,128.113037 176.734375,128.402710 
	C176.286453,132.359039 175.255295,136.083344 175.029099,139.855927 
	C174.833893,143.111618 173.964340,144.590347 170.296295,143.379623 
	C172.629440,141.348953 174.555939,133.205383 172.628357,130.972229 
	C171.944672,130.180161 170.292084,129.990356 169.065811,129.943436 
	C164.946060,129.785828 160.819077,129.816498 156.359253,129.547501 
	C161.699600,128.865845 167.375549,128.411819 173.518250,127.956825 
z"/>
<path fill="#F69FAE" opacity="1.000000" stroke="none" 
	d="
M23.726824,161.607971 
	C19.728601,164.949829 22.446207,169.325439 22.327864,173.070419 
	C22.308748,173.675308 26.256659,174.789215 28.434059,174.993393 
	C32.049580,175.332413 35.716381,175.124496 39.823975,175.333054 
	C34.178558,175.878265 28.072655,176.295044 21.959654,176.496567 
	C21.419785,176.514359 20.388020,175.151917 20.344242,174.387070 
	C20.128132,170.611481 20.014503,166.810898 20.268055,163.046295 
	C20.310423,162.417236 22.339386,161.921982 23.726824,161.607971 
z"/>
<path fill="#F69FAE" opacity="1.000000" stroke="none" 
	d="
M51.336655,175.473419 
	C56.310909,174.832520 61.608517,174.392273 66.913200,174.067749 
	C69.035263,173.937912 71.172920,174.063095 73.770508,174.229462 
	C73.105164,174.852829 71.979408,175.701965 70.839340,175.721649 
	C64.449089,175.831894 58.055378,175.742035 51.336655,175.473419 
z"/>
<path fill="#F49FAC" opacity="1.000000" stroke="none" 
	d="
M196.297577,128.443298 
	C199.755661,127.317314 200.584656,124.770851 200.103394,121.300209 
	C199.857010,119.523468 199.992661,117.693764 200.002716,115.425270 
	C200.596069,118.970695 201.329742,122.973061 201.453918,126.994240 
	C201.469620,127.502632 198.286484,128.109802 196.297577,128.443298 
z"/>
<path fill="#F69FAE" opacity="1.000000" stroke="none" 
	d="
M51.683365,160.645889 
	C47.225010,161.193268 42.449726,161.482239 37.349815,161.529037 
	C41.805603,160.987076 46.586021,160.687286 51.683365,160.645889 
z"/>
<path fill="#F49FAC" opacity="1.000000" stroke="none" 
	d="
M199.953308,114.575096 
	C196.916412,114.876534 193.794327,114.803307 190.350250,114.499367 
	C193.308228,114.245911 196.588150,114.223167 199.953308,114.575096 
z"/>
<path fill="#F49FAC" opacity="1.000000" stroke="none" 
	d="
M174.892426,114.719543 
	C174.812653,115.239815 174.577805,115.547974 174.061874,115.950729 
	C173.619278,115.675682 173.457764,115.306046 173.296249,114.936409 
	C173.776611,114.793419 174.256973,114.650429 174.892426,114.719543 
z"/>
</svg>